<?xml version="1.0" encoding="UTF-8" standalone="no"?>
<!DOCTYPE svg PUBLIC "-//W3C//DTD SVG 20010904//EN"
              "http://www.w3.org/TR/2001/REC-SVG-20010904/DTD/svg10.dtd">

<svg xmlns="http://www.w3.org/2000/svg"
     width="8.0345in" height="2.5948in"
     viewBox="0 0 771 249">
  <path id="Zaznaczenie"
        fill="black" stroke="black" stroke-width="1"
        d="M 26.45,92.00
           C 26.45,92.00 29.78,84.00 29.78,84.00
             36.24,70.22 42.54,61.40 54.00,51.17
             82.10,26.09 128.96,20.70 162.00,38.86
             175.37,46.22 186.21,55.77 195.33,68.00
             195.33,68.00 204.61,82.83 204.61,82.83
             208.81,87.94 213.13,89.34 218.00,96.00
             218.00,96.00 197.00,84.28 197.00,84.28
             197.00,84.28 188.58,80.32 188.58,80.32
             188.58,80.32 182.00,84.00 182.00,84.00
             182.00,84.00 166.00,95.00 166.00,95.00
             166.00,95.00 179.00,118.00 179.00,118.00
             179.00,118.00 137.00,80.83 137.00,80.83
             134.09,78.20 124.57,68.00 121.00,68.04
             117.06,68.09 107.85,79.84 104.91,83.00
             104.91,83.00 77.00,113.00 77.00,113.00
             72.90,117.15 69.72,121.54 65.00,125.00
             65.90,121.00 70.62,107.64 70.08,105.00
             69.19,100.66 60.40,94.11 56.99,90.91
             54.35,88.43 48.91,82.09 45.00,82.73
             42.76,83.10 38.83,86.72 37.00,88.25
             37.00,88.25 20.00,102.00 20.00,102.00
             20.00,102.00 26.45,92.00 26.45,92.00 Z
           M 390.99,49.73
           C 392.69,47.64 401.23,46.25 404.00,46.00
             404.00,46.00 403.00,58.00 403.00,58.00
             403.00,58.00 389.00,60.00 389.00,60.00
             389.18,57.83 389.73,51.29 390.99,49.73 Z
           M 85.00,69.60
           C 93.74,67.69 94.78,56.96 90.57,52.23
             87.58,48.86 84.09,48.88 80.00,49.39
             65.86,54.06 72.78,72.28 85.00,69.60 Z
           M 452.08,64.00
           C 452.08,64.00 450.03,87.00 450.03,87.00
             449.89,89.67 449.18,100.79 447.98,102.49
             445.80,105.59 437.59,106.82 434.00,107.00
             434.00,107.00 434.00,103.00 434.00,103.00
             431.00,104.70 428.49,106.26 425.00,106.79
             413.11,108.58 408.28,99.36 407.52,89.00
             406.61,76.77 415.81,63.81 429.00,65.11
             432.79,65.49 434.13,66.74 437.00,69.00
             437.00,69.00 439.60,52.56 439.60,52.56
             439.60,52.56 452.08,48.00 452.08,48.00
             454.01,53.06 452.68,58.75 452.08,64.00 Z
           M 738.01,69.00
           C 738.10,66.60 739.00,54.94 740.02,53.51
             741.75,51.09 750.89,49.63 754.00,49.00
             754.00,49.00 751.09,87.00 751.09,87.00
             751.09,87.00 748.98,102.49 748.98,102.49
             748.98,102.49 736.00,108.00 736.00,108.00
             734.46,101.53 737.71,77.32 738.01,69.00 Z
           M 242.39,54.85
           C 244.69,53.10 250.10,52.30 253.00,52.09
             260.93,51.50 272.22,50.41 278.89,55.65
             284.33,59.92 284.65,68.60 280.43,73.83
             278.18,76.62 275.13,78.39 272.00,80.00
             274.87,86.63 279.42,96.73 286.00,100.00
             283.35,104.08 274.74,107.11 270.00,108.00
             270.00,108.00 257.00,83.00 257.00,83.00
             257.00,86.93 256.52,100.67 254.18,103.30
             252.22,105.50 244.97,107.32 242.00,108.00
             242.00,108.00 242.90,87.00 242.90,87.00
             242.90,87.00 242.90,78.00 242.90,78.00
             242.90,78.00 244.00,63.00 244.00,63.00
             244.00,63.00 237.00,64.00 237.00,64.00
             238.11,60.97 239.74,56.87 242.39,54.85 Z
           M 473.55,92.79
           C 474.48,89.53 468.18,85.29 466.01,83.41
             460.49,78.61 456.67,72.65 458.39,65.00
             461.67,50.43 482.96,50.11 487.69,53.85
             490.52,56.10 490.84,64.45 491.00,68.00
             487.24,66.32 478.34,59.35 474.96,65.29
             472.95,68.83 477.61,72.19 480.00,73.99
             486.11,78.57 493.02,83.13 491.66,92.00
             490.66,98.50 484.26,104.80 478.00,106.44
             475.37,107.14 470.82,107.03 468.00,107.00
             465.62,106.96 462.43,107.04 460.60,105.26
             458.42,103.15 458.07,95.06 458.00,92.00
             461.27,93.40 471.76,99.05 473.55,92.79 Z
           M 636.11,64.87
           C 636.11,64.87 638.57,57.16 638.57,57.16
             638.57,57.16 651.00,54.00 651.00,54.00
             651.00,54.00 650.00,68.00 650.00,68.00
             650.00,68.00 661.00,68.00 661.00,68.00
             658.08,76.33 657.71,76.97 649.00,77.00
             648.90,81.47 645.67,95.38 651.47,96.86
             652.88,97.22 656.45,96.30 658.00,96.00
             658.00,96.00 660.00,104.00 660.00,104.00
             654.13,105.96 644.98,109.27 639.11,105.84
             632.68,102.09 634.50,93.95 634.91,88.00
             635.22,83.58 634.69,82.61 636.00,78.00
             636.00,78.00 628.00,77.00 628.00,77.00
             628.00,77.00 636.11,64.87 636.11,64.87 Z
           M 268.67,66.06
           C 268.28,64.35 267.47,63.30 265.85,62.60
             264.20,61.88 260.86,62.01 259.00,62.00
             259.00,62.00 258.00,78.00 258.00,78.00
             262.99,76.21 270.16,72.66 268.67,66.06 Z
           M 330.00,64.00
           C 329.99,74.94 325.82,94.03 328.00,103.00
             328.00,103.00 317.00,107.00 317.00,107.00
             317.00,107.00 316.00,103.00 316.00,103.00
             312.39,104.98 310.26,106.68 306.00,106.94
             282.17,108.39 284.21,66.66 306.00,65.10
             311.05,64.73 313.53,66.12 318.00,68.00
             320.56,64.17 325.64,64.57 330.00,64.00 Z
           M 335.83,103.00
           C 335.83,103.00 337.58,81.00 337.58,81.00
             337.58,81.00 339.90,67.73 339.90,67.73
             339.90,67.73 353.00,64.00 353.00,64.00
             353.00,64.00 353.00,69.00 353.00,69.00
             356.01,67.33 358.54,65.93 362.00,65.33
             373.98,63.23 380.56,71.67 379.91,83.00
             379.21,94.99 372.60,107.71 359.00,106.96
             354.91,106.73 353.54,105.78 350.00,104.00
             350.00,104.00 348.00,121.00 348.00,121.00
             348.00,121.00 335.00,124.00 335.00,124.00
             335.00,124.00 335.83,103.00 335.83,103.00 Z
           M 496.91,113.00
           C 496.91,113.00 499.09,83.00 499.09,83.00
             499.09,83.00 501.74,67.58 501.74,67.58
             501.74,67.58 515.00,64.00 515.00,64.00
             515.00,64.00 515.00,69.00 515.00,69.00
             518.01,67.33 520.54,65.93 524.00,65.33
             535.87,63.25 542.67,71.72 541.82,83.00
             540.92,94.90 534.60,107.66 521.00,106.96
             516.91,106.74 515.50,105.90 512.00,104.00
             512.00,104.00 510.00,121.00 510.00,121.00
             510.00,121.00 496.00,124.00 496.00,124.00
             496.00,124.00 496.91,113.00 496.91,113.00 Z
           M 575.00,64.97
           C 597.53,71.26 593.60,98.90 577.00,105.52
             561.03,111.89 541.92,100.37 546.93,82.00
             549.77,71.55 556.61,69.05 565.42,64.97
             569.28,63.73 571.17,64.12 575.00,64.97 Z
           M 687.58,82.00
           C 688.07,78.25 687.60,70.28 689.93,67.58
             691.85,65.37 699.98,64.41 703.00,64.00
             703.00,64.00 703.00,69.00 703.00,69.00
             706.01,67.33 708.54,65.93 712.00,65.33
             739.29,60.55 733.36,106.22 711.00,107.39
             706.63,107.62 703.74,105.89 700.00,104.00
             699.93,107.09 699.37,118.25 697.40,120.15
             695.37,122.10 686.97,123.58 684.00,124.00
             684.00,124.00 687.58,82.00 687.58,82.00 Z
           M 402.00,65.00
           C 402.00,65.00 399.00,103.00 399.00,103.00
             399.00,103.00 385.00,107.00 385.00,107.00
             385.00,107.00 388.00,68.00 388.00,68.00
             388.00,68.00 402.00,65.00 402.00,65.00 Z
           M 613.00,65.00
           C 613.00,65.00 613.00,70.00 613.00,70.00
             619.18,66.75 620.82,65.35 628.00,65.00
             628.00,65.00 626.00,75.00 626.00,75.00
             623.63,75.05 621.29,75.07 619.00,75.80
             607.19,79.55 613.18,96.86 609.01,102.30
             607.03,104.88 599.18,106.67 596.00,107.00
             596.00,107.00 599.00,68.00 599.00,68.00
             599.00,68.00 613.00,65.00 613.00,65.00 Z
           M 303.23,91.00
           C 303.93,94.84 306.63,98.37 310.95,97.29
             315.30,96.21 315.36,91.65 315.87,88.00
             316.80,81.41 318.86,73.99 309.10,74.47
             303.04,77.16 302.14,85.04 303.23,91.00 Z
           M 351.08,90.00
           C 351.17,94.64 353.78,98.66 358.99,97.64
             367.43,96.00 367.52,79.22 363.49,75.74
             361.85,74.33 360.92,74.58 359.01,74.50
             351.97,76.56 350.96,83.37 351.08,90.00 Z
           M 422.02,89.00
           C 422.16,94.20 423.46,99.32 429.99,97.57
             436.11,95.93 435.74,91.01 436.09,86.00
             436.51,79.87 437.25,74.76 429.04,74.54
             422.28,77.11 421.84,82.58 422.02,89.00 Z
           M 513.02,90.00
           C 513.22,94.81 515.40,98.86 520.99,97.67
             528.65,96.03 532.46,75.36 520.99,74.52
             512.94,76.73 512.72,82.68 513.02,90.00 Z
           M 560.34,90.00
           C 561.36,95.07 565.47,99.08 570.91,97.57
             578.90,95.34 580.94,73.62 567.02,74.69
             561.29,77.64 559.09,83.77 560.34,90.00 Z
           M 701.13,90.00
           C 701.10,94.66 703.83,98.65 708.99,97.64
             717.43,96.00 717.52,79.22 713.49,75.74
             711.83,74.31 710.93,74.59 709.00,74.54
             702.05,77.01 701.17,83.28 701.13,90.00 Z
           M 665.02,94.60
           C 666.93,92.18 675.92,93.00 679.00,93.00
             678.88,95.67 678.41,104.39 676.40,105.98
             674.50,107.48 666.66,107.00 664.00,107.00
             664.00,104.34 663.52,96.49 665.02,94.60 Z
           M 133.48,112.99
           C 136.29,115.50 136.45,119.85 144.00,124.30
             150.17,127.94 156.85,125.99 161.96,128.57
             169.71,132.48 168.72,142.11 180.00,136.00
             181.58,145.38 174.87,144.25 169.00,141.00
             169.00,141.00 168.00,150.00 168.00,150.00
             182.13,150.00 197.04,151.34 211.00,153.59
             216.28,154.44 224.51,155.37 229.00,158.00
             225.22,158.00 210.92,158.40 208.22,160.02
             205.79,161.48 204.84,164.56 203.69,167.00
             201.52,171.64 199.56,174.84 196.57,179.00
             187.53,191.62 177.68,201.18 164.00,208.69
             128.23,228.34 82.33,223.85 52.00,195.91
             46.36,190.71 38.74,181.64 34.87,175.00
             34.87,175.00 26.19,158.30 26.19,158.30
             23.29,154.85 20.40,156.37 16.00,153.00
             16.00,153.00 44.00,150.00 44.00,150.00
             44.00,150.00 56.00,149.18 56.00,149.18
             56.00,149.18 71.00,150.00 71.00,150.00
             71.00,150.00 89.00,152.00 89.00,152.00
             77.20,158.72 69.43,164.50 63.00,177.00
             84.13,165.70 85.04,162.87 110.00,156.63
             114.57,155.48 127.44,153.86 129.23,149.86
             132.45,144.08 129.06,138.84 129.23,133.00
             129.01,128.97 130.53,124.92 129.23,121.00
             127.27,115.46 124.01,114.69 124.00,108.00
             126.36,108.95 131.67,111.37 133.48,112.99 Z
           M 154.90,138.33
           C 154.90,138.33 136.00,140.00 136.00,140.00
             136.00,140.00 134.00,152.00 134.00,152.00
             134.00,152.00 153.00,150.04 153.00,150.04
             153.00,150.04 162.57,149.43 162.57,149.43
             162.57,149.43 165.00,145.00 165.00,145.00
             165.00,145.00 154.90,138.33 154.90,138.33 Z
           M 167.00,139.00
           C 167.00,139.00 168.00,140.00 168.00,140.00
             168.00,140.00 168.00,139.00 168.00,139.00
             168.00,139.00 167.00,139.00 167.00,139.00 Z
           M 168.00,140.00
           C 168.00,140.00 169.00,141.00 169.00,141.00
             169.00,141.00 169.00,140.00 169.00,140.00
             169.00,140.00 168.00,140.00 168.00,140.00 Z
           M 365.00,147.00
           C 364.53,152.65 363.36,152.84 358.00,154.00
             358.00,154.00 359.00,148.00 359.00,148.00
             359.00,148.00 365.00,147.00 365.00,147.00 Z
           M 400.00,147.00
           C 399.51,152.85 398.33,152.50 393.00,154.00
             393.00,154.00 394.00,148.00 394.00,148.00
             394.00,148.00 400.00,147.00 400.00,147.00 Z
           M 542.00,147.00
           C 542.00,147.00 541.00,153.00 541.00,153.00
             541.00,153.00 535.00,154.00 535.00,154.00
             535.00,154.00 535.00,148.00 535.00,148.00
             535.00,148.00 542.00,147.00 542.00,147.00 Z
           M 614.00,147.00
           C 613.53,152.65 612.36,152.84 607.00,154.00
             607.00,154.00 607.00,148.00 607.00,148.00
             607.00,148.00 614.00,147.00 614.00,147.00 Z
           M 376.00,164.00
           C 381.10,158.83 380.80,158.08 388.00,158.00
             388.00,158.00 382.94,167.00 382.94,167.00
             382.94,167.00 388.00,176.00 388.00,176.00
             381.18,178.61 381.49,175.05 375.00,170.00
             374.53,175.59 373.42,176.09 368.00,177.00
             368.00,177.00 369.28,158.00 369.28,158.00
             369.28,158.00 371.02,150.58 371.02,150.58
             371.02,150.58 376.00,148.00 376.00,148.00
             376.00,148.00 376.00,164.00 376.00,164.00 Z
           M 581.92,159.00
           C 581.92,159.00 583.85,150.56 583.85,150.56
             583.85,150.56 590.00,148.00 590.00,148.00
             590.00,148.00 589.00,158.00 589.00,158.00
             591.67,157.20 594.20,156.21 596.96,157.41
             603.79,160.36 602.67,170.62 598.58,174.57
             594.80,178.23 591.18,176.16 587.00,176.31
             587.00,176.31 580.00,177.00 580.00,177.00
             580.00,177.00 581.92,159.00 581.92,159.00 Z
           M 530.00,149.00
           C 530.00,149.00 528.42,168.00 528.42,168.00
             528.42,168.00 526.98,174.49 526.98,174.49
             526.98,174.49 521.00,177.00 521.00,177.00
             521.00,177.00 523.00,150.00 523.00,150.00
             523.00,150.00 530.00,149.00 530.00,149.00 Z
           M 331.51,160.00
           C 333.14,153.85 330.47,150.89 340.00,150.00
             340.00,150.00 339.00,161.00 339.00,161.00
             339.00,161.00 346.00,161.00 346.00,161.00
             346.00,161.00 347.00,151.00 347.00,151.00
             347.00,151.00 354.00,150.00 354.00,150.00
             354.00,150.00 352.16,167.00 352.16,167.00
             352.16,167.00 350.71,174.58 350.71,174.58
             350.71,174.58 345.00,178.00 345.00,178.00
             345.00,178.00 345.00,167.00 345.00,167.00
             345.00,167.00 338.00,167.00 338.00,167.00
             338.00,167.00 337.00,176.00 337.00,176.00
             337.00,176.00 331.00,177.00 331.00,177.00
             331.00,172.82 331.58,170.51 329.00,167.00
             329.00,167.00 331.51,160.00 331.51,160.00 Z
           M 483.17,174.32
           C 481.86,175.72 479.31,174.98 477.00,175.27
             472.15,175.88 463.49,179.61 460.19,173.77
             457.33,168.71 463.57,165.39 464.43,162.54
             465.18,160.02 462.59,155.92 466.31,152.56
             469.45,149.73 476.64,149.16 478.16,154.11
             479.25,157.68 476.70,159.55 474.00,161.00
             479.08,167.60 479.34,164.01 486.00,165.00
             486.00,165.00 483.17,170.00 483.17,170.00
             483.89,171.40 485.01,172.75 483.17,174.32 Z
           M 516.01,175.26
           C 514.13,177.58 507.52,177.24 505.00,176.26
             500.21,174.41 497.13,169.04 497.26,164.00
             497.46,156.67 502.61,150.74 510.00,150.11
             512.65,149.88 516.08,149.99 517.71,152.43
             518.79,154.04 518.83,156.15 519.00,158.00
             516.55,157.02 513.53,155.43 510.86,156.19
             505.23,157.80 503.26,165.46 507.43,169.57
             510.23,172.32 513.54,171.42 517.00,171.00
             516.89,172.43 516.98,174.06 516.01,175.26 Z
           M 470.00,154.00
           C 470.00,154.00 470.00,159.00 470.00,159.00
             470.00,159.00 472.00,159.00 472.00,159.00
             472.00,159.00 474.00,155.00 474.00,155.00
             474.00,155.00 470.00,154.00 470.00,154.00 Z
           M 362.02,174.30
           C 360.61,176.09 358.07,176.50 356.00,177.00
             358.34,163.92 354.42,159.95 364.00,156.00
             364.88,159.10 364.00,171.79 362.02,174.30 Z
           M 411.00,156.00
           C 415.29,158.24 417.32,155.30 420.77,157.21
             425.81,160.00 423.02,170.84 423.00,176.00
             423.00,176.00 417.00,177.00 417.00,177.00
             417.00,177.00 417.00,161.00 417.00,161.00
             404.17,163.13 415.99,173.51 403.00,177.00
             403.00,177.00 404.00,157.00 404.00,157.00
             404.00,157.00 411.00,156.00 411.00,156.00 Z
           M 431.16,175.99
           C 425.09,172.67 426.54,162.33 431.16,158.52
             435.22,155.27 438.24,157.80 441.42,157.77
             441.42,157.77 448.00,157.00 448.00,157.00
             447.88,170.12 446.76,190.33 428.00,185.00
             428.00,185.00 429.00,181.00 429.00,181.00
             435.13,181.23 436.07,180.81 440.00,175.99
             437.15,176.51 433.80,177.45 431.16,175.99 Z
           M 546.74,157.90
           C 548.10,156.64 550.26,156.38 552.00,156.00
             552.79,156.43 552.54,156.73 554.22,157.01
             554.22,157.01 566.17,157.59 566.17,157.59
             569.28,157.20 572.60,155.62 575.26,158.52
             578.25,161.79 576.04,171.43 576.00,176.00
             576.00,176.00 570.00,177.00 570.00,177.00
             570.00,174.26 570.98,164.27 569.24,162.74
             567.68,161.37 566.02,162.76 565.17,164.16
             564.09,165.95 563.33,173.49 563.00,176.00
             563.00,176.00 557.00,177.00 557.00,177.00
             557.00,177.00 558.00,161.00 558.00,161.00
             548.70,162.60 553.12,170.13 549.98,174.49
             548.58,176.43 546.15,176.64 544.00,177.00
             544.03,173.62 544.64,159.85 546.74,157.90 Z
           M 625.00,158.00
           C 627.35,157.33 630.50,156.26 632.94,156.74
             640.61,158.24 636.57,173.66 635.98,174.49
             634.60,176.42 632.14,176.64 630.00,177.00
             630.00,177.00 631.00,161.00 631.00,161.00
             617.63,163.19 630.08,174.62 616.00,177.00
             616.00,177.00 618.00,157.00 618.00,157.00
             621.01,156.64 622.75,155.71 625.00,158.00 Z
           M 644.25,175.91
           C 639.20,172.78 640.61,162.88 644.25,159.28
             648.12,155.50 650.92,157.27 655.00,157.20
             655.00,157.20 662.00,157.20 662.00,157.20
             662.00,157.20 661.17,165.00 661.17,165.00
             660.38,172.91 660.83,181.40 652.00,184.99
             648.96,186.23 645.25,186.00 642.00,186.00
             643.59,176.99 648.31,185.13 653.00,175.91
             650.13,176.69 646.96,177.48 644.25,175.91 Z
           M 393.82,158.74
           C 393.82,158.74 399.00,157.00 399.00,157.00
             399.00,161.05 399.50,172.19 396.43,174.92
             394.97,176.21 392.83,176.56 391.00,177.00
             391.00,177.00 393.82,158.74 393.82,158.74 Z
           M 535.57,158.17
           C 537.05,157.02 539.24,157.10 541.00,157.00
             541.00,157.00 540.09,165.00 540.09,165.00
             539.59,171.79 540.64,174.95 533.00,177.00
             533.00,173.42 532.90,160.27 535.57,158.17 Z
           M 607.60,158.74
           C 609.09,157.27 611.07,157.23 613.00,157.00
             613.00,157.00 611.01,174.30 611.01,174.30
             611.01,174.30 605.00,177.00 605.00,177.00
             605.03,173.73 605.62,160.68 607.60,158.74 Z
           M 434.16,168.94
           C 434.42,170.82 435.48,172.99 437.75,171.83
             439.96,170.70 442.92,163.17 437.17,161.91
             434.37,163.53 433.71,165.65 434.16,168.94 Z
           M 591.87,172.18
           C 594.95,171.38 597.09,163.10 591.87,161.91
             585.76,165.04 587.76,173.21 591.87,172.18 Z
           M 652.42,162.17
           C 648.88,160.09 647.66,166.80 647.84,169.00
             647.99,170.83 648.39,171.39 649.00,173.00
             656.68,170.15 653.74,162.94 652.42,162.17 Z
           M 468.00,167.00
           C 466.86,172.12 468.37,172.66 473.00,171.00
             473.00,171.00 468.00,167.00 468.00,167.00 Z
           M 62.00,177.00
           C 62.00,177.00 63.00,178.00 63.00,178.00
             63.00,178.00 63.00,177.00 63.00,177.00
             63.00,177.00 62.00,177.00 62.00,177.00 Z" />
</svg>
